<svg xmlns="http://www.w3.org/2000/svg" xmlns:xlink="http://www.w3.org/1999/xlink" fill="none" version="1.1" width="800" height="800" viewBox="0 0 800 800"><defs><clipPath id="master_svg0_39_08245"><rect x="0" y="0" width="800" height="800" rx="0"/></clipPath></defs><g clip-path="url(#master_svg0_39_08245)"><rect x="0" y="0" width="800" height="800" rx="0" fill="#99A0AF" fill-opacity="1"/><g><path d="M624.7950000000001,173.5126L448.924,388.53200000000004L538.1890000000001,388.53200000000004C550.863,388.53200000000004,561.137,398.81,561.137,411.488C561.137,424.166,550.863,434.444,538.1890000000001,434.444L423.446,434.444L423.446,480.355L538.1890000000001,480.355C550.863,480.355,561.137,490.633,561.137,503.311C561.137,515.989,550.863,526.2660000000001,538.1890000000001,526.2660000000001L423.446,526.2660000000001L423.446,641.044C423.446,653.722,413.171,664,400.497,664C387.823,664,377.549,653.722,377.549,641.044L377.549,526.2660000000001L262.8057,526.2660000000001C250.1316,526.2660000000001,239.8572,515.989,239.8572,503.311C239.8572,490.633,250.1316,480.355,262.8057,480.355L377.549,480.355L377.549,434.444L262.8057,434.444C250.1316,434.444,239.8572,424.166,239.8572,411.488C239.8572,398.81,250.1316,388.53200000000004,262.8057,388.53200000000004L352.07,388.53200000000004L176.19946,173.5126C168.16172,163.70159999999998,169.60258,149.2291,179.4168,141.19649C189.231,133.16386,203.6979,134.61633,211.72050000000002,144.43976L400.497,375.23699999999997L589.274,144.43974C597.2950000000001,134.61073,611.7660000000001,133.1551,621.5830000000001,141.18985C631.4,149.2246,632.8389999999999,163.702,624.7950000000001,173.5126Z" fill="#FFFFFF" fill-opacity="1" style="mix-blend-mode:passthrough"/></g></g></svg>