<svg xmlns="http://www.w3.org/2000/svg" xmlns:xlink="http://www.w3.org/1999/xlink" fill="none" version="1.1" width="800" height="800" viewBox="0 0 800 800"><defs><clipPath id="master_svg0_39_08110"><rect x="0" y="0" width="800" height="800" rx="0"/></clipPath><clipPath id="master_svg1_39_08211"><rect x="0" y="0" width="800" height="800" rx="0"/></clipPath></defs><g clip-path="url(#master_svg0_39_08110)"><g clip-path="url(#master_svg1_39_08211)"><rect x="0" y="0" width="800" height="800" rx="0" fill="#056194" fill-opacity="1"/></g><g><g><g><g><path d="M614.277,141L568.642,336.717L234.1529,336.717L187.7804,141L142.88349,141L189.2568,336.717L141,336.717L141,380.404L199.6063,380.404L209.9583,424.091L141,424.091L141,467.777L220.3095,467.777L265.853,660L296.679,660L391.964,467.777L409.732,467.777L507.381,660L538.121,660L582.942,467.777L660,467.777L660,424.091L593.1279999999999,424.091L603.315,380.404L660,380.404L660,336.717L613.501,336.717L659.138,141L614.277,141ZM244.503,380.404L386.515,380.404L364.85900000000004,424.091L254.85500000000002,424.091L244.503,380.404ZM290.43100000000004,574.239L265.205,467.777L343.203,467.777L290.43100000000004,574.239ZM513.1179999999999,574.838L458.733,467.777L538.0799999999999,467.777L513.1179999999999,574.838ZM548.268,424.091L436.54,424.091L414.348,380.404L558.456,380.404L548.268,424.091Z" fill="#FFFFFF" fill-opacity="1" style="mix-blend-mode:passthrough"/></g></g></g></g></g></svg>