<svg xmlns="http://www.w3.org/2000/svg" xmlns:xlink="http://www.w3.org/1999/xlink" fill="none" version="1.1" width="800" height="800" viewBox="0 0 800 800"><defs><clipPath id="master_svg0_39_08224"><rect x="0" y="0" width="800" height="800" rx="0"/></clipPath></defs><g clip-path="url(#master_svg0_39_08224)"><rect x="0" y="0" width="800" height="800" rx="0" fill="#50AF95" fill-opacity="1"/><g><path d="M533.8199999999999,408.934C512.421,394.554,488.318,384.504,462.918,379.369L437.80600000000004,374.087L437.80600000000004,272.14C438.344,272.786,439.129,273.188,439.977,273.252C440.575,273.19,441.079,273.685,441.01599999999996,274.272C461.30899999999997,283.27099999999996,474.349,303.10699999999997,474.342,324.967L557.139,324.967C555.6279999999999,282.706,539.579,250.824,508.707,227.8398C487.777,212.5849,463.49199999999996,202.3635,437.80600000000004,197.9973L437.80600000000004,141L362.278,141L362.278,195.8657C331.071,198.1644,301.3704,209.9564,277.3098,229.60070000000002C250.5682,252.337,235.57509,285.615,236.43052,320.33299999999997Q236.43052,379.462,278.3483,407.914C293.0761,418.387,321.0213,428.304,362.278,437.571L362.278,547.117C349.041,543.97,337.07,536.996,327.9131,527.0989999999999C318.6231,515.575,313.0069,501.615,311.7691,486.969L230.105108,486.969C228.485,525.076,245.6717,561.614,276.2713,585.116C301.5451,603.194,331.194,614.472,362.278,617.831L362.278,660L437.80600000000004,660L437.80600000000004,618.851C470.331,615.865,501.298,603.769,527.0219999999999,584.004C554.8720000000001,561.0699999999999,570.662,527.0029999999999,569.979,491.325Q569.979,437.571,533.8199999999999,408.934ZM362.278,356.2C353.389,353.977,344.753,350.871,336.504,346.932C323.6181,341.038,315.557,328.16499999999996,316.0176,314.216C315.38620000000003,299.102,323.25329999999997,284.866,336.504,277.145C344.611,272.555,353.269,268.975,362.278,266.48699999999997L362.278,356.2ZM451.495,544.986C447.334,546.5799999999999,442.991,547.669,438.56100000000004,548.23L438.56100000000004,454.254C449.379,457.378,459.824,461.635,469.716,466.951C481.211,473.486,488.215,485.607,488.031,498.647Q487.654,532.289,451.11699999999996,544.986L451.495,544.986Z" fill="#FFFFFF" fill-opacity="1" style="mix-blend-mode:passthrough"/></g></g></svg>