<svg width="76" height="76" viewBox="0 0 76 76" fill="none" xmlns="http://www.w3.org/2000/svg">
<path d="M38 76C27.9253 75.9886 18.2665 71.9814 11.1425 64.8575C4.01863 57.7336 0.0114142 48.0747 1.55228e-05 38V37.7467C-0.00448295 32.7885 0.968793 27.878 2.86415 23.2963C4.7595 18.7147 7.53973 14.5517 11.0457 11.0457C14.5517 7.53973 18.7147 4.7595 23.2963 2.86415C27.878 0.968793 32.7885 -0.00448295 37.7467 1.55228e-05H38C48.0782 1.55228e-05 57.7437 4.00358 64.8701 11.13C71.9965 18.2563 76 27.9218 76 38C76 48.0782 71.9965 57.7437 64.8701 64.8701C57.7437 71.9965 48.0782 76 38 76ZM34.2836 41.6581H41.3579L45.562 56.3097H59.4269L55.2469 41.6581H60.3035V38.4129H54.3033L53.637 36.0709H60.3047V32.8751H52.7161L48.0067 16.3692H27.6475L22.9267 32.8751H15.3495V36.0721H22.0109L21.3446 38.4142H15.3495V41.6594H20.3997L16.2285 56.3097H30.1061L34.2861 41.6581H34.2836ZM53.5699 53.1075H49.5875L46.3119 41.6594H50.2943L53.5686 53.1075H53.5699ZM26.0604 53.1075H22.0704L25.3523 41.6594H29.336L26.0604 53.1075ZM49.3734 38.4142H45.367L44.7019 36.0721H48.6907L49.3734 38.4129V38.4142ZM40.4371 38.4142H35.2285L35.8999 36.0721H39.7543L40.4371 38.4129V38.4142ZM30.2809 38.4142H26.2922L26.9572 36.0721H30.9396L30.2809 38.4142ZM47.7686 32.8763H43.8039L40.3522 20.843H44.3409L47.7686 32.8763ZM38.8575 32.8763H36.8207L37.8265 29.3145L38.8575 32.8763ZM31.8605 32.8763H27.8781L31.3057 20.843H35.2957L31.8617 32.8763H31.8605Z" fill="#00665E"/>
</svg>
