<svg width="66" height="65" viewBox="0 0 66 65" fill="none" xmlns="http://www.w3.org/2000/svg">
<path d="M33.0001 0C24.3805 0 16.114 3.4241 10.0191 9.51903C3.92412 15.614 0.5 23.8804 0.5 32.5C0.5 36.7679 1.34068 40.9941 2.97396 44.9372C4.60723 48.8803 7.00115 52.463 10.0191 55.4809C13.037 58.4988 16.6197 60.8928 20.5628 62.5261C24.5059 64.1594 28.7321 65 33.0001 65C37.268 65 41.4941 64.1594 45.4372 62.5261C49.3803 60.8928 52.963 58.4988 55.981 55.4809C58.9989 52.463 61.3928 48.8803 63.026 44.9372C64.6593 40.9941 65.5 36.7679 65.5 32.5C65.5 28.232 64.6593 24.0059 63.026 20.0628C61.3928 16.1197 58.9989 12.5369 55.981 9.51903C52.963 6.50113 49.3803 4.10718 45.4372 2.4739C41.4941 0.840626 37.268 0 33.0001 0V0ZM50.9068 43.7978C48.7885 45.1243 46.3394 45.8277 43.84 45.8275C41.9177 45.8283 40.0181 45.4123 38.272 44.6083C36.5259 43.8042 34.9749 42.6311 33.7259 41.1699C32.846 42.1966 31.8154 43.0839 30.6694 43.8014C28.5503 45.1276 26.1006 45.8298 23.6008 45.8275C20.0678 45.8237 16.6806 44.4185 14.1823 41.9202C11.6841 39.422 10.2789 36.0348 10.2751 32.5018C10.2789 28.9688 11.6841 25.5816 14.1823 23.0834C16.6806 20.5852 20.0678 19.18 23.6008 19.1761C25.9814 19.1763 28.3185 19.8149 30.3685 21.0253C31.6325 21.7731 32.7649 22.7238 33.7203 23.8393C34.9696 22.3776 36.5208 21.2042 38.2672 20.3998C40.0136 19.5954 41.9136 19.1792 43.8363 19.1798C46.2191 19.1776 48.5589 19.8149 50.6114 21.0253C52.5967 22.1989 54.2451 23.8655 55.3968 25.8636L51.6217 28.0374C50.8326 26.6713 49.6984 25.5365 48.3327 24.7466C46.967 23.9566 45.4177 23.5394 43.84 23.5365C41.4617 23.5394 39.1817 24.4855 37.5 26.1672C35.8182 27.8489 34.8722 30.129 34.8693 32.5073C34.8722 34.8856 35.8182 37.1657 37.5 38.8474C39.1817 40.5291 41.4617 41.4751 43.84 41.478C45.4998 41.4816 47.1279 41.0229 48.5416 40.1532C49.9553 39.2835 51.099 38.0372 51.8443 36.5541L55.7287 38.5255C54.6305 40.6879 52.9642 42.5105 50.9087 43.7978H50.9068Z" fill="#212121"/>
<path d="M30.7806 28.1377C30.02 26.8612 28.9413 25.8038 27.65 25.0686C26.3587 24.3335 24.8989 23.9457 23.4129 23.9432C21.1431 23.9457 18.967 24.8482 17.3618 26.453C15.7567 28.0579 14.8536 30.2339 14.8507 32.5036C14.8536 34.7734 15.7567 36.9494 17.3618 38.5542C18.967 40.159 21.1431 41.0616 23.4129 41.064C24.9002 41.0682 26.3626 40.6833 27.655 39.9475C28.9475 39.2117 30.025 38.1506 30.7806 36.8695C30.2688 35.4722 30.0077 33.9954 30.0092 32.5073C30.0071 31.0167 30.2682 29.5374 30.7806 28.1377V28.1377Z" fill="#212121"/>
</svg>
