<svg width="1000" height="1000" viewBox="0 0 1000 1000" fill="none" xmlns="http://www.w3.org/2000/svg">
<rect width="1000" height="1000" fill="white"/>
<circle cx="500" cy="500" r="500" fill="#212121"/>
<path fill-rule="evenodd" clip-rule="evenodd" d="M283.918 513.225V513.192C282.092 513.325 272.68 513.889 251.682 513.889C234.917 513.889 223.115 513.391 218.965 513.192V513.242C154.426 510.404 106.255 499.166 106.255 485.72C106.255 472.291 154.426 461.054 218.965 458.165V502.054C223.181 502.353 235.265 503.067 251.964 503.067C272 503.067 282.043 502.237 283.918 502.071V458.198C348.324 461.07 396.379 472.308 396.379 485.72C396.379 499.166 348.324 510.37 283.918 513.225ZM283.918 453.634V414.359H373.787V354.469H129.096V414.359H218.965V453.617C145.927 456.97 91 471.445 91 488.775C91 506.104 145.927 520.562 218.965 523.932V649.789H283.918V523.899C356.839 520.546 411.634 506.088 411.634 488.775C411.634 471.461 356.839 457.003 283.918 453.634Z" fill="white"/>
<path d="M747.686 341.576C705.167 341.576 664.391 358.466 634.326 388.531C604.261 418.596 587.37 459.373 587.37 501.891C587.37 522.943 591.517 543.79 599.574 563.241C607.63 582.691 619.439 600.364 634.326 615.25C649.213 630.137 666.885 641.946 686.336 650.003C705.786 658.059 726.633 662.206 747.686 662.206C768.738 662.206 789.585 658.059 809.035 650.003C828.485 641.946 846.158 630.137 861.045 615.25C875.932 600.364 887.74 582.691 895.796 563.241C903.853 543.79 908 522.943 908 501.891C908 480.838 903.853 459.992 895.796 440.541C887.74 421.091 875.932 403.418 861.045 388.531C846.158 373.645 828.485 361.836 809.035 353.779C789.585 345.723 768.738 341.576 747.686 341.576ZM836.015 557.62C825.566 564.164 813.485 567.633 801.156 567.632C791.674 567.636 782.304 565.584 773.691 561.618C765.078 557.652 757.427 551.865 751.266 544.658C746.926 549.722 741.842 554.099 736.189 557.638C725.736 564.18 713.652 567.644 701.321 567.632C683.894 567.614 667.186 560.682 654.862 548.359C642.539 536.036 635.607 519.327 635.589 501.9C635.607 484.472 642.539 467.764 654.862 455.441C667.186 443.118 683.894 436.187 701.321 436.167C713.064 436.168 724.593 439.318 734.705 445.289C740.94 448.978 746.526 453.667 751.238 459.17C757.401 451.96 765.053 446.171 773.667 442.204C782.282 438.236 791.654 436.183 801.138 436.186C812.892 436.175 824.434 439.318 834.558 445.289C844.351 451.078 852.482 459.299 858.163 469.155L839.542 479.878C835.649 473.139 830.055 467.542 823.318 463.645C816.581 459.748 808.939 457.69 801.156 457.676C789.425 457.69 778.178 462.357 769.883 470.653C761.587 478.948 756.92 490.195 756.906 501.927C756.92 513.659 761.587 524.906 769.883 533.201C778.178 541.497 789.425 546.163 801.156 546.177C809.344 546.195 817.375 543.932 824.348 539.642C831.322 535.352 836.963 529.205 840.64 521.889L859.801 531.613C854.383 542.28 846.164 551.27 836.025 557.62H836.015Z" fill="white"/>
<path d="M736.737 480.372C732.986 474.075 727.665 468.86 721.295 465.233C714.925 461.607 707.724 459.694 700.394 459.682C689.198 459.694 678.464 464.146 670.546 472.062C662.628 479.978 658.173 490.712 658.159 501.908C658.173 513.104 662.628 523.838 670.546 531.754C678.464 539.67 689.198 544.123 700.394 544.134C707.731 544.155 714.945 542.257 721.32 538.627C727.695 534.998 733.01 529.763 736.737 523.444C734.213 516.551 732.925 509.267 732.932 501.926C732.922 494.574 734.21 487.277 736.737 480.372Z" fill="white"/>
<rect x="489" y="327" width="20" height="336" fill="white"/>
</svg>
