<svg width="1000" height="1000" viewBox="0 0 1000 1000" fill="none" xmlns="http://www.w3.org/2000/svg">
<g clip-path="url(#clip0_45_10)">
<rect width="1000" height="1000" fill="white"/>
<circle cx="500" cy="500" r="500" fill="#00665E"/>
<path d="M636.941 622.878C558.479 725.902 432.471 741.945 352.807 681.274C273.142 620.603 269.989 506.194 348.451 403.17C426.912 300.145 557.276 247.518 636.941 308.189C716.605 368.86 715.402 519.853 636.941 622.878Z" fill="white"/>
<path d="M348.719 860.165L347.063 605.542C346.552 526.912 427.259 473.879 499.229 505.555C500.671 506.19 502.117 506.79 503.566 507.357L568.625 399.439C589.618 364.616 606.285 327.362 618.256 288.502L660.101 152.676L651.334 409.967C648.775 485.09 572.691 534.413 503.566 507.357L456.447 585.518C438.895 614.632 424.358 645.46 413.062 677.524L348.719 860.165Z" fill="#00665E"/>
</g>
<defs>
<clipPath id="clip0_45_10">
<rect width="1000" height="1000" fill="white"/>
</clipPath>
</defs>
</svg>
