<svg width="1000" height="1000" viewBox="0 0 1000 1000" fill="none" xmlns="http://www.w3.org/2000/svg">
<rect width="1000" height="1000" fill="white"/>
<circle cx="500" cy="500" r="500" fill="#212121"/>
<path d="M191.452 529.048L141.516 578.983L145.677 649.725L228.903 566.499L191.452 529.048Z" fill="#D9D9D9"/>
<path d="M312.129 529.048L362.064 578.983L357.903 649.725L274.677 566.499L312.129 529.048Z" fill="#D9D9D9"/>
<path d="M141.516 352.193L251.79 462.468V541.532L147.758 437.5V651.806L89.5 631V370.919L141.516 352.193Z" fill="white"/>
<path d="M359.984 352.193L249.71 462.468V541.532L353.742 437.5V651.806L412 631V370.919L359.984 352.193Z" fill="white"/>
<path d="M604.088 486.651L624.41 476.565L629.049 359.46L611.376 358.758C602.024 358.385 594.15 365.653 593.788 375.005L590.043 469.372C589.862 473.862 591.479 478.235 594.522 481.534C597.065 484.279 600.449 486.024 604.088 486.651Z" fill="white"/>
<path d="M697.518 438.303L678.802 418.576C678.068 417.8 677.834 416.661 678.207 415.65C678.579 414.639 679.483 413.927 680.558 413.82L707.584 410.969C708.51 410.873 709.329 410.32 709.765 409.511L722.778 385.624C723.299 384.677 724.31 384.103 725.374 384.145C726.449 384.188 727.396 384.837 727.843 385.816L738.898 410.66C739.281 411.511 740.036 412.118 740.962 412.288L750.442 414.054L801.802 388.582L802.685 366.334L649.723 360.29L645.531 466.116L698.199 439.984C698.125 439.367 697.944 438.771 697.518 438.303Z" fill="white"/>
<path d="M840.638 373.654C845.734 373.654 850.618 374.708 855.076 376.559C852.289 371.579 847.118 368.09 841 367.845L823.337 367.143L822.901 378.102L823.944 377.591C829.093 375.027 834.882 373.654 840.638 373.654Z" fill="white"/>
<path d="M596.406 513.55C592.384 515.55 589.32 519.083 587.883 523.307C586.447 527.552 586.777 532.213 588.756 536.235L638.189 635.836C641.126 641.795 647.138 645.242 653.362 645.242C655.894 645.242 658.459 644.668 660.874 643.465L681.984 633.017L617.516 503.091L596.406 513.55Z" fill="white"/>
<path d="M905.234 503.356L855.8 403.744C852.874 397.785 846.841 394.338 840.617 394.338C838.106 394.338 835.52 394.902 833.105 396.115L812.006 406.585L876.484 536.51L897.584 526.051C901.606 524.051 904.681 520.529 906.106 516.294C907.543 512.038 907.234 507.378 905.234 503.356Z" fill="white"/>
<path d="M636.03 493.897L700.508 623.813L857.971 545.693L793.492 415.757L636.03 493.897ZM798.248 550.3C797.748 551.258 796.737 551.854 795.694 551.843L763.998 551.109C763.072 551.088 762.199 551.524 761.646 552.269L743.069 577.933C742.43 578.795 741.366 579.231 740.302 579.039C739.238 578.858 738.366 578.103 738.057 577.05L728.981 546.683C728.726 545.8 728.034 545.097 727.151 544.81L696.997 535.075C695.976 534.745 695.22 533.862 695.061 532.798C694.901 531.712 695.369 530.67 696.252 530.052L722.299 512.049C723.065 511.528 723.523 510.656 723.523 509.719L723.448 478.033C723.448 476.958 724.055 475.969 725.023 475.49C725.981 475.011 727.13 475.118 727.981 475.767L753.177 494.993C753.911 495.557 754.879 495.728 755.762 495.43L785.895 485.577C786.916 485.247 788.023 485.524 788.778 486.29C789.523 487.056 789.789 488.194 789.438 489.205L778.457 520.487L798.003 547.268C798.652 548.183 798.727 549.354 798.248 550.3Z" fill="white"/>
<rect x="489" y="327" width="20" height="336" fill="white"/>
</svg>
