<svg width="1000" height="1000" viewBox="0 0 1000 1000" fill="none" xmlns="http://www.w3.org/2000/svg">
<rect width="1000" height="1000" fill="white"/>
<circle cx="500" cy="500" r="500" fill="#D5651D"/>
<g clip-path="url(#clip0_92_16)">
<path d="M587.605 527.712L634.09 513.409C663.664 542.984 663.664 591.105 634.09 620.68C604.515 650.255 556.393 650.255 526.819 620.68L342.228 436.089C343.08 420.496 337.572 404.616 325.686 392.729C303.504 370.548 267.413 370.549 245.232 392.729C223.051 414.911 223.051 451.001 245.232 473.183C257.118 485.068 272.998 490.576 288.592 489.725L473.182 674.315C532.426 733.558 628.48 733.559 687.724 674.315C746.969 615.071 746.969 519.017 687.724 459.773L592.968 365.017L587.605 527.712ZM298.868 446.365C291.474 453.758 279.444 453.758 272.05 446.365C264.657 438.971 264.657 426.941 272.05 419.547C279.444 412.154 291.474 412.154 298.868 419.547C306.261 426.941 306.261 438.971 298.868 446.365Z" fill="white"/>
</g>
<defs>
<clipPath id="clip0_92_16">
<rect width="512" height="512" fill="white" transform="translate(137.961 500) rotate(-45)"/>
</clipPath>
</defs>
</svg>
