<svg width="1000" height="1000" viewBox="0 0 1000 1000" fill="none" xmlns="http://www.w3.org/2000/svg">
<rect width="1000" height="1000" fill="white"/>
<circle cx="500" cy="500" r="500" fill="#3477DC"/>
<g clip-path="url(#clip0_2_43)">
<path d="M613.655 410.771C603.781 420.644 582.074 414.489 560.787 403.982C542.022 394.722 521.288 389.823 499.823 389.808C478.405 389.778 457.736 394.59 439.078 403.724C417.75 414.16 396.058 420.34 386.215 410.497C376.372 400.654 382.01 378.714 402.335 366.444C462.108 330.349 537.792 330.42 597.611 366.631C617.915 378.931 623.528 400.897 613.655 410.771Z" fill="white"/>
<path d="M683.276 341.15C673.428 350.998 651.857 345.132 632.181 331.849C552.519 278.074 447.254 277.927 367.709 331.464C348.018 344.721 326.462 350.603 316.629 340.77C306.791 330.932 312.379 309.153 331.604 295.227C431.606 222.815 568.239 222.942 668.336 295.551C687.551 309.498 693.129 331.297 683.276 341.15Z" fill="white"/>
</g>
<path d="M659.318 625.992C655.768 634.813 647.218 640.595 637.706 640.595H633.457V761.713C633.457 774.574 623.031 785 610.165 785H389.834C376.968 785 366.542 774.574 366.542 761.713V640.595H362.293C352.781 640.595 344.231 634.817 340.681 625.992C337.135 617.171 339.309 607.081 346.172 600.501L483.88 468.478C492.892 459.841 507.11 459.841 516.126 468.478L653.833 600.501C660.694 607.081 662.865 617.171 659.318 625.992ZM475.932 654.598V706.015H524.07V654.598H475.932Z" fill="white"/>
<path d="M472.584 705.48C457.568 690.465 457.619 666.179 472.66 651.138C487.63 636.168 511.921 636.123 526.931 651.133C541.896 666.098 541.977 690.516 527.007 705.485C511.971 720.521 487.549 720.445 472.584 705.48Z" fill="#3477DC"/>
<defs>
<clipPath id="clip0_2_43">
<rect width="284" height="284" fill="white" transform="translate(299 326.818) rotate(-45)"/>
</clipPath>
</defs>
</svg>
