<svg width="1000" height="1000" viewBox="0 0 1000 1000" fill="none" xmlns="http://www.w3.org/2000/svg">
<rect width="1000" height="1000" fill="white"/>
<circle cx="500" cy="500" r="500" fill="#EF84B2"/>
<path d="M516.821 473C509.123 486.333 489.878 486.333 482.18 473L390.814 314.75C383.116 301.417 392.738 284.75 408.134 284.75L590.866 284.75C606.262 284.75 615.884 301.417 608.186 314.75L516.821 473Z" fill="white"/>
<path d="M189 526.616C189 512.809 177.807 501.616 164 501.616C150.193 501.616 139 512.809 139 526.616H189ZM475 454V561H525V454H475ZM189 561V526.616H139V561H189ZM332 704C253.023 704 189 639.977 189 561H139C139 667.591 225.409 754 332 754V704ZM475 561C475 639.977 410.977 704 332 704V754C438.591 754 525 667.591 525 561H475Z" fill="white"/>
<path d="M810 526.616C810 512.809 821.193 501.616 835 501.616C848.807 501.616 860 512.809 860 526.616H810ZM525 454V561.5H475V454H525ZM810 561.5V526.616H860V561.5H810ZM667.5 704C746.201 704 810 640.201 810 561.5H860C860 667.815 773.815 754 667.5 754V704ZM525 561.5C525 640.201 588.799 704 667.5 704V754C561.185 754 475 667.815 475 561.5H525Z" fill="white"/>
</svg>
