<svg width="32" height="32" viewBox="0 0 32 32" fill="none" xmlns="http://www.w3.org/2000/svg">
<g clip-path="url(#clip0_242_63)">
<path d="M16 32C11.758 31.9952 7.69114 30.308 4.6916 27.3084C1.69206 24.3089 0.00480597 20.242 6.53593e-06 16V15.8933C-0.00188756 13.8057 0.407913 11.7381 1.20596 9.80898C2.004 7.87986 3.17462 6.12704 4.65083 4.65083C6.12704 3.17462 7.87986 2.004 9.80898 1.20596C11.7381 0.407913 13.8057 -0.00188756 15.8933 6.53593e-06H16C20.2435 6.53593e-06 24.3131 1.68572 27.3137 4.6863C30.3143 7.68688 32 11.7565 32 16C32 20.2435 30.3143 24.3131 27.3137 27.3137C24.3131 30.3143 20.2435 32 16 32ZM14.4352 17.5403H17.4139L19.184 23.7093H25.0219L23.2619 17.5403H25.3909V16.1739H22.8645L22.584 15.1877H25.3915V13.8421H22.1963L20.2133 6.89227H11.6411L9.65334 13.8421H6.46294V15.1883H9.26774L8.98721 16.1744H6.46294V17.5408H8.58934L6.83307 23.7093H12.6763L14.4363 17.5403H14.4352ZM22.5557 22.3611H20.8789L19.4997 17.5408H21.1765L22.5552 22.3611H22.5557ZM10.9728 22.3611H9.29281L10.6747 17.5408H12.352L10.9728 22.3611ZM20.7888 16.1744H19.1019L18.8219 15.1883H20.5013L20.7888 16.1739V16.1744ZM17.0261 16.1744H14.8331L15.1157 15.1883H16.7387L17.0261 16.1739V16.1744ZM12.7499 16.1744H11.0704L11.3504 15.1883H13.0272L12.7499 16.1744ZM20.1131 13.8427H18.4437L16.9904 8.77601H18.6699L20.1131 13.8427ZM16.3611 13.8427H15.5035L15.9269 12.3429L16.3611 13.8427ZM13.4149 13.8427H11.7381L13.1813 8.77601H14.8613L13.4155 13.8427H13.4149Z" fill="#4153F1"/>
<path d="M16 32C24.8366 32 32 24.8366 32 16C32 7.16344 24.8366 0 16 0C7.16344 0 0 7.16344 0 16C0 24.8366 7.16344 32 16 32Z" fill="#4153F1"/>
<path fill-rule="evenodd" clip-rule="evenodd" d="M16 5.50838C15.8043 6.2321 15.0976 7.70295 13.536 8.73598C13.5898 8.78378 13.6421 8.82999 13.6929 8.87492C14.4578 9.55057 14.878 9.92177 14.848 10.912C14.816 11.968 14.304 12.256 11.808 12.928C11.712 12.32 11.04 8.28798 7.80798 8.44798C7.8565 8.49502 7.90533 8.54186 7.95442 8.5889C8.97387 9.56644 10.0962 10.6425 10.432 15.68C12.0603 14.8179 13.6568 14.0514 16.016 14.0162C18.375 14.0516 19.9396 14.8499 21.568 15.712C21.9039 10.6734 23.0557 9.56881 24.0781 8.58846C24.127 8.54148 24.1757 8.49476 24.224 8.44798C20.992 8.28798 20.32 12.32 20.224 12.928C17.728 12.256 17.216 11.968 17.184 10.912C17.154 9.92177 17.5742 9.55057 18.3391 8.87492C18.3899 8.82999 18.4422 8.78378 18.496 8.73598C16.9344 7.70295 16.2276 6.2321 16.032 5.50838V5.37598C16.0273 5.39836 16.0219 5.42181 16.016 5.44628C16.01 5.42181 16.0047 5.39836 16 5.37598V5.50838Z" fill="white"/>
<path fill-rule="evenodd" clip-rule="evenodd" d="M15.9999 28.032L13.6639 24C13.6835 24.0023 13.7031 24.0046 13.723 24.0069C14.3649 24.0821 15.1679 24.1761 15.1679 22.624V18.272C15.2106 17.6853 15.0079 16.5824 13.8559 16.864C12.4159 17.216 11.8079 17.664 11.7759 19.04V20.416L10.6559 17.44C10.6444 17.4016 10.631 17.3631 10.6177 17.3245C10.5191 17.0407 10.4165 16.7454 11.0079 16.384C11.7179 15.9502 13.3759 14.976 15.9999 14.976C18.6239 14.976 20.282 15.9502 20.9919 16.384C21.5834 16.7454 21.4808 17.0407 21.3822 17.3245C21.3688 17.3631 21.3555 17.4016 21.3439 17.44L20.2239 20.416V19.04C20.1919 17.664 19.5839 17.216 18.1439 16.864C16.9919 16.5824 16.7893 17.6853 16.8319 18.272V22.624C16.8319 24.1761 17.6349 24.0821 18.2769 24.0069C18.2968 24.0046 18.3164 24.0023 18.3359 24L15.9999 28.032Z" fill="white"/>
</g>
<defs>
<clipPath id="clip0_242_63">
<rect width="32" height="32" fill="white"/>
</clipPath>
</defs>
</svg>
